<?xml version="1.0" standalone="no"?>
<!DOCTYPE svg PUBLIC "-//W3C//DTD SVG 20010904//EN"
 "http://www.w3.org/TR/2001/REC-SVG-20010904/DTD/svg10.dtd">
<svg version="1.0" xmlns="http://www.w3.org/2000/svg"
 width="512.000000pt" height="512.000000pt" viewBox="0 0 512.000000 512.000000"
 preserveAspectRatio="xMidYMid meet">
<metadata>
Created by potrace 1.14, written by Peter Selinger 2001-2017
</metadata>
<g transform="translate(0.000000,512.000000) scale(0.100000,-0.100000)"
fill="#000000" stroke="none">
<path d="M3010 4603 c-67 -21 -131 -70 -159 -123 -16 -30 -93 -278 -106 -340
-2 -8 -4 -15 -5 -15 -1 0 -3 -7 -5 -15 -13 -51 -33 -123 -55 -195 -11 -38 -23
-78 -25 -88 -2 -10 -7 -27 -10 -37 -3 -10 -8 -27 -10 -37 -2 -10 -23 -81 -45
-158 -23 -77 -43 -147 -45 -155 -2 -8 -13 -46 -25 -85 -12 -38 -23 -78 -25
-88 -2 -10 -7 -27 -10 -37 -3 -10 -8 -27 -10 -37 -2 -10 -36 -128 -75 -263
-39 -135 -73 -252 -75 -260 -2 -8 -17 -62 -35 -120 -17 -58 -33 -115 -36 -127
-2 -12 -9 -34 -14 -48 -5 -14 -7 -25 -4 -25 4 0 1 -7 -6 -15 -6 -8 -9 -19 -5
-25 3 -5 2 -10 -2 -10 -5 0 -10 -8 -10 -17 -1 -10 -27 -103 -58 -208 -31 -104
-58 -198 -60 -209 -3 -10 -12 -44 -21 -75 -9 -31 -15 -56 -14 -56 1 0 -4 -13
-10 -30 -7 -16 -13 -37 -15 -45 -2 -8 -11 -41 -20 -74 -9 -32 -18 -64 -19 -70
-1 -6 -4 -15 -8 -21 -6 -10 -20 -71 -19 -80 1 -3 -5 -21 -13 -40 -9 -20 -15
-38 -16 -40 0 -3 0 -6 -1 -7 0 -2 -2 -10 -4 -18 -2 -8 -7 -26 -10 -40 -3 -14
-7 -29 -8 -35 -2 -5 -6 -16 -10 -22 -5 -7 -5 -17 -2 -23 3 -5 1 -10 -6 -10 -7
0 -10 -3 -6 -6 3 -3 -1 -23 -8 -45 -8 -22 -15 -41 -15 -44 0 -3 -2 -10 -5 -17
-8 -25 -46 -163 -51 -187 -3 -14 -8 -29 -11 -35 -14 -22 -12 -129 3 -157 8
-16 14 -32 14 -36 0 -5 12 -25 27 -46 40 -54 131 -96 203 -93 56 2 130 24 130
38 0 4 6 8 13 8 6 0 21 10 33 23 23 25 71 92 65 92 -2 0 3 20 10 45 11 41 15
53 22 85 1 6 6 16 10 23 5 6 5 17 2 22 -3 6 -1 10 6 10 7 0 10 2 7 6 -3 3 8
49 24 102 16 53 31 108 34 122 2 14 9 36 14 50 5 14 30 99 55 190 25 91 49
172 52 180 3 8 7 20 8 26 13 59 70 252 78 262 5 6 7 12 4 12 -3 0 -1 15 4 33
10 30 17 60 22 82 2 6 6 16 10 23 5 6 5 17 2 22 -3 6 -1 10 6 10 7 0 10 2 7 5
-3 3 6 43 19 88 13 45 25 87 26 92 2 6 6 16 10 23 5 6 6 12 3 12 -2 0 0 15 5
33 6 17 33 111 60 207 49 174 91 318 108 375 16 51 35 120 37 130 0 6 4 17 7
25 10 26 98 334 103 360 2 14 9 36 14 50 5 14 30 99 55 190 25 91 49 172 52
180 3 8 7 20 8 25 3 8 40 148 49 180 2 6 6 17 9 25 5 13 30 103 41 150 2 8 15
54 29 102 32 109 30 167 -10 243 -22 42 -59 79 -107 109 -27 17 -141 29 -176
19z"/>
<path d="M1068 3704 c-37 -12 -127 -73 -128 -85 0 -11 -231 -239 -241 -239 -5
0 -9 -4 -9 -8 0 -11 -300 -312 -311 -312 -5 0 -9 -4 -9 -8 0 -4 -74 -83 -164
-174 -100 -100 -172 -181 -182 -205 -34 -78 -20 -216 27 -267 8 -8 223 -224
479 -480 458 -460 524 -518 565 -502 8 3 15 2 15 -3 0 -12 77 -6 130 10 50 15
118 78 145 134 20 42 29 146 15 174 -4 9 -14 31 -21 49 -8 18 -171 189 -387
406 l-373 374 372 372 c205 205 381 388 392 407 43 82 23 220 -44 291 -64 68
-183 97 -271 66z"/>
<path d="M3874 3699 c-71 -27 -134 -95 -151 -161 -6 -27 -7 -126 -1 -148 14
-50 77 -120 410 -454 204 -203 366 -372 359 -374 -6 -2 -11 -11 -11 -19 0 -9
-2 -14 -5 -11 -5 5 -219 -206 -235 -232 -6 -8 -10 -12 -10 -9 0 7 -137 -131
-150 -151 -6 -8 -10 -12 -10 -9 0 12 -70 -62 -70 -74 0 -6 -2 -8 -5 -5 -3 3
-42 -32 -85 -77 -44 -46 -80 -81 -80 -79 0 3 -12 -9 -27 -28 -15 -18 -31 -35
-34 -38 -3 -3 -17 -25 -29 -50 -31 -59 -33 -157 -5 -215 43 -88 136 -148 229
-147 114 1 112 -1 633 521 263 264 483 486 488 493 42 55 44 190 3 258 -36 61
-951 969 -1005 999 -60 32 -144 36 -209 10z"/>
</g>
</svg>
